<svg xmlns="http://www.w3.org/2000/svg" viewBox="0 0 128 128" role="img" aria-labelledby="title desc">
  <title id="title">CredAxis Logo</title>
  <desc id="desc">Rounded shield mark with a C curve and payout arrow</desc>
  <defs>
    <linearGradient id="bg" x1="12%" y1="10%" x2="90%" y2="92%">
      <stop offset="0%" stop-color="#3c73c4" />
      <stop offset="100%" stop-color="#1f3b63" />
    </linearGradient>
    <linearGradient id="arrow" x1="0%" y1="0%" x2="100%" y2="0%">
      <stop offset="0%" stop-color="#6ec2ff" />
      <stop offset="100%" stop-color="#9ce7ff" />
    </linearGradient>
  </defs>

  <rect x="10" y="10" width="108" height="108" rx="30" fill="url(#bg)" />
  <path d="M37 64c0-16 12-28 28-28 7 0 13 2 18 6l-7 8c-3-2-7-4-11-4-10 0-17 8-17 18s7 18 17 18c4 0 8-2 11-4l7 8c-5 4-11 6-18 6-16 0-28-12-28-28z" fill="#ffffff" />
  <path d="M55 64h32" stroke="url(#arrow)" stroke-width="8" stroke-linecap="round" />
  <path d="M80 54l12 10-12 10" fill="none" stroke="url(#arrow)" stroke-width="8" stroke-linecap="round" stroke-linejoin="round" />
</svg>
