<svg xmlns="http://www.w3.org/2000/svg" viewBox="0 0 520 128" role="img" aria-labelledby="title desc">
  <title id="title">CredAxis Wordmark</title>
  <desc id="desc">CredAxis wordmark with product icon and brand text</desc>
  <defs>
    <linearGradient id="iconBg" x1="12%" y1="10%" x2="90%" y2="92%">
      <stop offset="0%" stop-color="#3c73c4" />
      <stop offset="100%" stop-color="#1f3b63" />
    </linearGradient>
    <linearGradient id="iconArrow" x1="0%" y1="0%" x2="100%" y2="0%">
      <stop offset="0%" stop-color="#6ec2ff" />
      <stop offset="100%" stop-color="#9ce7ff" />
    </linearGradient>
  </defs>

  <rect x="12" y="12" width="104" height="104" rx="28" fill="url(#iconBg)" />
  <path d="M36 64c0-15 11-27 27-27 6 0 12 2 16 6l-7 8c-2-2-6-3-9-3-9 0-16 7-16 16s7 16 16 16c3 0 7-1 9-3l7 8c-4 4-10 6-16 6-16 0-27-12-27-27z" fill="#ffffff" />
  <path d="M53 64h31" stroke="url(#iconArrow)" stroke-width="8" stroke-linecap="round" />
  <path d="M76 54l12 10-12 10" fill="none" stroke="url(#iconArrow)" stroke-width="8" stroke-linecap="round" stroke-linejoin="round" />

  <text x="140" y="69" fill="#1f3b63" font-family="Segoe UI, Arial, Helvetica, sans-serif" font-size="44" font-weight="700" letter-spacing="0.6">CredAxis</text>
  <text x="142" y="94" fill="#5b667a" font-family="Segoe UI, Arial, Helvetica, sans-serif" font-size="16" font-weight="600" letter-spacing="1.6">PAYMENTS PLATFORM</text>
</svg>
